<svg xmlns="http://www.w3.org/2000/svg" viewBox="0 0 128 128">
  <!-- 流れる軌跡 -->
  <path d="M20 80 Q50 70 80 50 Q100 35 115 20" stroke="#FFD700" stroke-width="8" stroke-linecap="round" fill="none" opacity="0.3"/>
  <path d="M30 90 Q55 75 85 55 Q105 40 118 28" stroke="#FFD700" stroke-width="5" stroke-linecap="round" fill="none" opacity="0.5"/>

  <!-- メインの星 -->
  <polygon points="100,15 104,28 118,28 107,37 111,50 100,42 89,50 93,37 82,28 96,28" fill="#FFD700"/>

  <!-- 小さな星（軌跡上） -->
  <polygon points="60,55 62,60 67,60 63,64 65,69 60,66 55,69 57,64 53,60 58,60" fill="#FFD700" opacity="0.7"/>
  <polygon points="35,75 36,78 39,78 37,80 38,83 35,81 32,83 33,80 31,78 34,78" fill="#FFD700" opacity="0.5"/>
</svg>
