<?xml version="1.0" encoding="UTF-8"?>
<svg id="Layer_1" data-name="Layer 1" xmlns="http://www.w3.org/2000/svg" viewBox="800 200 1100 1300">
  <defs>
    <style>
      .cls-1 {
        fill: #ce435b;
        stroke-width: 0px;
      }
    </style>
  </defs>
  <path class="cls-1" d="m1624.15,917.31l118.17-207.37-118.17-207.37c22.16-14.52,36.84-39.75,36.84-68.48,0-45.02-36.02-81.51-80.45-81.51-28.5,0-53.52,15.03-67.82,37.68h-272.04l-182.17,319.68,182.17,319.68h272.04c14.29,22.65,39.31,37.68,67.81,37.68,44.43,0,80.45-36.49,80.45-81.51,0-28.73-14.68-53.96-36.84-68.48Zm109-207.37l-115.87,203.34c-11.02-5.74-23.5-9-36.73-9s-25.72,3.26-36.73,9l-76.75-134.69c22.21-14.51,36.93-39.78,36.93-68.54s-14.76-54.1-37.03-68.6l76.84-134.85c11.02,5.74,23.5,9,36.73,9s25.72-3.26,36.73-9l115.87,203.34Zm-220.42,232.02h-216.88l91.19-159.28c10.96,5.67,23.36,8.88,36.51,8.88s25.65-3.24,36.64-8.95l76.76,134.7c-9.71,6.36-17.98,14.78-24.21,24.65Zm-62.93-231.91c0,15.07-11.78,27.32-26.26,27.32s-26.26-12.26-26.26-27.32,11.78-27.32,26.26-27.32,26.26,12.26,26.26,27.32Zm130.74-303.29c14.48,0,26.26,12.26,26.26,27.32s-11.78,27.32-26.26,27.32-26.26-12.26-26.26-27.32,11.78-27.32,26.26-27.32Zm-43.61,95.8l-76.85,134.87c-10.97-5.68-23.38-8.9-36.54-8.9s-25.64,3.24-36.63,8.95l-91.13-159.57h216.95c6.23,9.87,14.49,18.29,24.21,24.65Zm-247.81-20.25l90.91,159.18c-9.72,6.34-17.99,14.75-24.24,24.61h-171.4l104.73-183.79Zm-104.73,271.45h171.26c6.28,9.99,14.65,18.5,24.49,24.9l-90.99,158.94-104.76-183.84Zm396.15,259.34c-14.48,0-26.26-12.26-26.26-27.32s11.78-27.32,26.26-27.32,26.26,12.26,26.26,27.32-11.78,27.32-26.26,27.32Z"/>
  <g>
    <path class="cls-1" d="m1103.74,1336.65l-2.38,11.66h-98.06l54.27-62.12c21.42-24.28,33.32-39.51,33.32-57.84,0-21.9-16.42-37.61-37.37-37.61s-37.13,15.95-37.13,36.89c0,7.14,1.9,13.33,4.76,19.75l-12.14,2.38c-3.33-6.9-5-14.28-5-22.13,0-27.37,21.42-48.55,49.51-48.55s49.74,20.71,49.74,49.27c0,19.75-10.95,36.18-35.94,64.5l-38.56,43.79h74.97Z"/>
    <path class="cls-1" d="m1127.06,1265.01c0-46.41,21.66-85.44,60.69-85.44s60.69,39.03,60.69,85.44-21.66,85.44-60.69,85.44-60.69-39.03-60.69-85.44Zm108.77,0c0-39.51-15.95-74.02-48.08-74.02s-48.08,34.51-48.08,74.02,15.95,74.02,48.08,74.02,48.08-34.51,48.08-74.02Z"/>
    <path class="cls-1" d="m1370.17,1336.65l-2.38,11.66h-98.06l54.27-62.12c21.42-24.28,33.32-39.51,33.32-57.84,0-21.9-16.42-37.61-37.37-37.61s-37.13,15.95-37.13,36.89c0,7.14,1.9,13.33,4.76,19.75l-12.14,2.38c-3.33-6.9-5-14.28-5-22.13,0-27.37,21.42-48.55,49.51-48.55s49.74,20.71,49.74,49.27c0,19.75-10.95,36.18-35.94,64.5l-38.56,43.79h74.97Z"/>
    <path class="cls-1" d="m1489.58,1303.09h-23.09v45.22h-11.9v-45.22h-80.45l92.35-127.1v115.91h23.09v11.19Zm-34.99-11.19v-80.45l-57.84,80.45h57.84Z"/>
    <path class="cls-1" d="m1676.4,1236.69l-9.04,51.41h28.32v10.71h-29.99l-8.81,49.51h-11.9l8.81-49.51h-48.55l-8.81,49.51h-11.9l8.81-49.51h-28.08v-10.71h29.75l9.04-51.41h-27.85v-10.71h29.75l7.85-44.27h11.9l-7.85,44.27h48.55l7.85-44.27h11.9l-7.85,44.27h28.32v10.71h-30.23Zm-11.9,0h-48.55l-9.04,51.41h48.55l9.04-51.41Z"/>
    <path class="cls-1" d="m1786.59,1177.66v170.65h-12.14v-148.52l-36.42,25.23-2.62-12.38,51.17-34.99Z"/>
  </g>
</svg>